# xmcd
#
# Track frame offsets: 
#        150
#        24095
#        48823
#        67020
#        91284
#        107349
#        124580
#        144229
#        160370
#        182744
#
# Disc length: 2603 seconds
#
# Revision: 0
# Processed by: cddbd v1.5.2PL0 Copyright (c) Steve Scherf et al.
# Submitted via: ExactAudioCopy v1.0b4
#
DISCID=750a290a
DTITLE=David Dee - It's No Secret
DYEAR=1999
DGENRE=Blues
TTITLE0=The Blues
TTITLE1=It's No Secret
TTITLE2=Crying All Night
TTITLE3=You Took The ''V'' Out Of Love
TTITLE4=Unselfish Love
TTITLE5=Qualified
TTITLE6=Bad Luck Falling
TTITLE7=Leave Me Alone
TTITLE8=Just Be Happy
TTITLE9=Mega Bills and Mini Bucks
EXTD=
EXTT0=
EXTT1=
EXTT2=
EXTT3=
EXTT4=
EXTT5=
EXTT6=
EXTT7=
EXTT8=
EXTT9=
PLAYORDER=
